<svg xmlns="http://www.w3.org/2000/svg" width="240" height="240" viewBox="0 0 240 240">
  <g transform="translate(0, 0)">
  <rect width="240" height="240" fill="#f2ecbc"/>
  <rect x="8" y="8" width="224" height="224" rx="8" fill="#f2ecbc"/>
  <rect x="16" y="16" width="208" height="36" rx="6" fill="#e7dfb1"/>
  <text x="28" y="40" font-family="system-ui, sans-serif" font-size="12" font-weight="600" fill="#1f1f28">Kanagawa-wave-lotus (light)</text>
  <rect x="16" y="60" width="208" height="72" rx="6" fill="#ddd39a"/>
  <text x="28" y="82" font-family="system-ui, sans-serif" font-size="11" fill="#1f1f28">Surface Text</text>
  <text x="28" y="98" font-family="system-ui, sans-serif" font-size="10" fill="#c84053">Outline color</text>
  <rect x="28" y="108" width="72" height="18" rx="9" fill="#c84053"/>
  <text x="64" y="120" font-family="system-ui, sans-serif" font-size="9" text-anchor="middle" fill="#1f1f28">Primary</text>
  <rect x="108" y="108" width="48" height="18" rx="4" fill="#6f894e"/>
  <rect x="16" y="140" width="100" height="52" rx="6" fill="#e7dfb1"/>
  <rect x="24" y="148" width="84" height="36" rx="4" fill="#f2ecbc"/>
  <text x="66" y="170" font-family="system-ui, sans-serif" font-size="9" text-anchor="middle" fill="#1f1f28">Background</text>
  <rect x="124" y="140" width="100" height="52" rx="6" fill="#e7dfb1"/>
  <circle cx="148" cy="166" r="9" fill="#c84053"/>
  <circle cx="172" cy="166" r="9" fill="#dca561"/>
  <circle cx="196" cy="166" r="9" fill="#658594"/>
  <rect x="16" y="200" width="208" height="24" rx="4" fill="#c84053" opacity="0.15"/>
  <text x="120" y="216" font-family="system-ui, sans-serif" font-size="9" text-anchor="middle" fill="#1f1f28">Surface Tint Overlay</text>
</g>
</svg>